<svg t="1670745931772" class="icon" viewBox="0 0 1024 1024" version="1.1" xmlns="http://www.w3.org/2000/svg" p-id="6601" width="32" height="32"><path d="M225.792 1024h-2.56c-17.408-1.536-30.72-16.384-29.696-34.304 0.512-4.096 8.192-107.008 65.024-249.344 52.224-130.56 157.696-321.024 362.496-485.376 13.824-11.264 33.792-8.704 45.056 5.12 11.264 13.824 8.704 33.792-5.12 45.056-371.2 297.472-403.456 685.568-403.968 689.152-0.512 16.896-14.848 29.696-31.232 29.696z" fill="#cdcdcd" p-id="6602"></path><path d="M688.128 318.976c-30.72 0-56.832-9.728-72.704-32.256-11.776-16.896-25.6-53.76 12.288-114.176 23.04-36.864 60.928-74.24 105.984-105.472C778.752 35.84 827.392 13.312 869.376 4.608c69.632-14.848 99.84 11.264 111.104 28.16 42.496 60.928-27.648 156.672-118.272 219.648-56.32 39.424-122.368 66.56-174.08 66.56z m219.648-254.976c-6.656 0-14.848 1.024-25.088 3.072-33.792 7.168-74.752 26.112-112.64 52.736-37.888 26.112-70.144 57.856-88.064 87.04-15.872 25.088-16.384 39.936-13.824 43.52 7.168 10.24 72.704 8.704 158.208-50.688s109.568-120.32 102.4-130.56c-2.048-2.56-8.192-5.12-20.992-5.12zM697.856 610.816c-19.968 0-40.448-1.536-60.928-4.096-54.784-7.168-105.472-23.552-142.336-45.568-61.44-36.352-66.048-75.776-63.488-95.744 2.56-20.48 17.408-56.832 86.016-75.776 41.984-11.264 94.72-13.824 149.504-6.656 109.568 14.336 215.552 67.584 205.824 141.312-7.68 59.904-86.016 86.528-174.592 86.528z m-92.16-167.936c-26.624 0-51.2 3.072-71.168 8.192-28.672 7.68-38.912 18.944-39.424 22.528-0.512 4.096 6.656 16.896 32.256 32.256 29.696 17.408 72.704 31.232 118.272 36.864 103.424 13.824 161.792-14.848 163.84-27.648 1.536-12.288-47.616-55.808-151.04-69.12-17.92-2.048-35.84-3.072-52.736-3.072z m235.52 77.312zM580.608 880.128c-31.744 0-65.024-4.096-97.792-11.776-53.76-12.288-102.4-33.28-137.728-58.368-57.856-41.984-58.368-81.408-53.76-101.376 4.608-19.968 22.528-55.296 92.672-67.584 42.496-7.68 95.744-5.12 149.504 7.68 108.032 24.576 208.384 87.552 191.488 159.744-11.264 50.688-72.192 71.68-144.384 71.68z m-145.408-179.2c-14.336 0-28.16 1.024-39.936 3.072-29.184 5.12-40.96 14.848-41.472 18.944-1.024 4.096 5.12 17.408 29.184 35.328 27.648 19.968 69.632 37.888 114.176 48.128 101.376 23.552 162.816 0 165.376-11.776 2.56-12.288-41.984-59.904-143.36-82.944-28.672-7.168-57.856-10.752-83.968-10.752z m258.56 100.352z" fill="#cdcdcd" p-id="6603"></path><path d="M445.952 475.648c-21.504 0-56.832-10.24-87.04-68.096-19.968-38.4-33.28-89.6-37.888-144.896-4.608-54.784 0.512-108.032 14.336-148.992C357.376 46.08 394.752 33.28 415.232 31.744c20.48-1.536 59.392 5.12 92.16 68.096 19.968 38.4 33.28 89.6 37.888 144.896 8.704 110.08-20.992 224.768-94.72 230.912h-4.608z m-25.088-379.904s-0.512 0 0 0c-4.096 0.512-15.36 10.24-25.088 38.4-10.752 32.768-14.848 77.824-11.264 123.392 3.584 46.08 14.848 89.6 30.72 120.32 13.824 26.624 26.624 34.304 30.72 33.792 12.288-1.024 44.544-58.368 35.84-161.792-3.584-46.08-14.848-89.6-30.72-120.32-13.824-26.112-26.112-33.792-30.208-33.792zM298.496 687.616c-55.808 0-127.488-48.64-181.76-111.104-36.352-41.472-63.488-87.04-76.8-128-22.016-67.584 0.512-100.352 15.872-113.664 55.808-48.64 158.72 10.24 231.424 93.696C359.936 512 404.48 622.08 348.672 670.72c-14.848 11.264-31.744 16.896-50.176 16.896z m28.672-41.984zM104.96 380.416c-3.584 0-6.144 0.512-7.68 2.048-3.072 2.56-6.144 17.408 3.072 45.568 10.752 32.768 34.304 71.168 64.512 105.984 68.608 78.336 131.584 95.744 140.8 87.552 9.216-8.192 1.024-73.216-67.584-151.552-57.856-67.072-112.64-89.6-133.12-89.6z" fill="#cdcdcd" p-id="6604"></path></svg>