<svg t="1670744883376" class="icon" viewBox="0 0 1024 1024" version="1.1" xmlns="http://www.w3.org/2000/svg" p-id="4497" width="200" height="200"><path d="M512 784.8c-29.6 0-59.2-4.8-88-14.4C313.6 732.8 239.2 628.8 239.2 512c0-150.4 122.4-272.8 272.8-272.8S784.8 361.6 784.8 512c0 128.8-91.2 240.8-216.8 267.2-18.4 3.2-37.6 5.6-56 5.6z m0-529.6c-141.6 0-256.8 115.2-256.8 256.8 0 110.4 70.4 208 174.4 243.2 43.2 14.4 90.4 17.6 135.2 8C683.2 738.4 768.8 632.8 768.8 512c0-141.6-115.2-256.8-256.8-256.8z" p-id="4498" fill="#cdcdcd"></path><path d="M579.2 1020H444.8c-8 0-14.4-5.6-16-13.6l-12.8-71.2c-48.8-11.2-95.2-29.6-137.6-56.8l-59.2 41.6c-6.4 4.8-15.2 4-20.8-1.6L105.6 824c-5.6-5.6-6.4-14.4-1.6-20.8l41.6-59.2c-27.2-42.4-45.6-88-56.8-137.6l-71.2-12.8c-8-1.6-13.6-8-13.6-16V444.8c0-8 5.6-14.4 13.6-16l71.2-12.8c11.2-48.8 29.6-95.2 56.8-137.6L104 220.8c-4.8-6.4-4-15.2 1.6-20.8L200 105.6c5.6-5.6 14.4-6.4 20.8-1.6l59.2 41.6c42.4-27.2 88-45.6 137.6-56.8l12.8-71.2c1.6-8 8-13.6 16-13.6h133.6c8 0 14.4 5.6 16 13.6l12.8 71.2c48.8 11.2 95.2 29.6 137.6 56.8l59.2-41.6c6.4-4.8 15.2-4 20.8 1.6L918.4 200c5.6 5.6 6.4 14.4 1.6 20.8l-41.6 59.2c27.2 42.4 45.6 88 56.8 137.6l71.2 12.8c8 1.6 13.6 8 13.6 16v133.6c0 8-5.6 14.4-13.6 16l-71.2 12.8c-11.2 48.8-29.6 95.2-56.8 137.6l41.6 59.2c4.8 6.4 4 15.2-1.6 20.8L824 918.4c-5.6 5.6-14.4 6.4-20.8 1.6l-59.2-41.6c-42.4 27.2-88 45.6-137.6 56.8l-12.8 71.2c0 8-7.2 13.6-14.4 13.6z m-120.8-32h107.2l12-68c0.8-6.4 6.4-12 12.8-12.8 52-10.4 101.6-30.4 145.6-60 5.6-4 12.8-4 18.4 0l56.8 40 75.2-75.2-40-56.8c-4-5.6-4-12.8 0-18.4 29.6-44 50.4-93.6 60-145.6 1.6-6.4 6.4-11.2 12.8-12.8l68-12V458.4l-68-12c-6.4-0.8-12-6.4-12.8-12.8-10.4-52-30.4-101.6-60-145.6-4-5.6-4-12.8 0-18.4l40-56.8-75.2-75.2-56.8 40c-5.6 4-12.8 4-18.4 0-44-29.6-93.6-50.4-145.6-60-6.4-1.6-11.2-6.4-12.8-12.8l-12-68H458.4L446.4 104c-0.8 6.4-6.4 12-12.8 12.8-52 10.4-101.6 30.4-145.6 60-5.6 4-12.8 4-18.4 0l-56.8-40-75.2 75.2 40 56.8c4 5.6 4 12.8 0 18.4-29.6 44-50.4 93.6-60 145.6-1.6 6.4-6.4 11.2-12.8 12.8l-68 12v107.2l68 12c6.4 0.8 12 6.4 12.8 12.8 10.4 52 30.4 101.6 60 145.6 4 5.6 4 12.8 0 18.4l-40 56.8 75.2 75.2 56.8-40c5.6-4 12.8-4 18.4 0 44 29.6 93.6 50.4 145.6 60 6.4 1.6 11.2 6.4 12.8 12.8l12 69.6z" p-id="4499" fill="#cdcdcd"></path><path d="M512 784.8c-29.6 0-59.2-4.8-88-14.4-3.2-0.8-5.6-4-5.6-7.2V636c-9.6-6.4-19.2-13.6-27.2-21.6-32-32-49.6-74.4-49.6-120 0-45.6 17.6-88 49.6-120 33.6-33.6 78.4-51.2 126.4-49.6 2.4 0 4 0.8 5.6 2.4l17.6 17.6c1.6 1.6 2.4 3.2 2.4 5.6s-0.8 4-2.4 5.6L464 432l26.4 84 84 26.4 76.8-76.8c3.2-3.2 8-3.2 11.2 0l17.6 17.6c1.6 1.6 2.4 3.2 2.4 5.6 1.6 47.2-16.8 92.8-49.6 126.4-16.8 16.8-36 29.6-57.6 37.6v119.2c0 4-2.4 7.2-6.4 8-19.2 2.4-38.4 4.8-56.8 4.8z m-76.8-28c40 12.8 82.4 15.2 123.2 8V646.4c0-3.2 2.4-6.4 5.6-7.2 21.6-8 40.8-20 56.8-36 29.6-29.6 45.6-69.6 44.8-111.2L656 482.4l-74.4 74.4c-2.4 2.4-5.6 3.2-8 1.6l-92-28.8c-2.4-0.8-4.8-2.4-5.6-5.6L447.2 432c-0.8-3.2 0-5.6 1.6-8l74.4-74.4-9.6-9.6c-41.6-0.8-81.6 15.2-111.2 44.8-28.8 28.8-44.8 68-44.8 108.8s16 80 44.8 108.8c8 8 17.6 16 28 22.4 2.4 1.6 4 4 4 7.2v124.8z" p-id="4500" fill="#cdcdcd"></path></svg>