<svg t="1670744911023" class="icon" viewBox="0 0 1024 1024" version="1.1" xmlns="http://www.w3.org/2000/svg" p-id="4804" width="200" height="200"><path d="M64 943.616V878.72c0-8.96 7.232-16.192 16.192-16.32 9.728-0.128 19.2-0.192 31.488-0.192V307.328c0-70.656 19.84-99.712 85.888-126.08 90.496-36.096 180.864-72.64 271.68-107.904 63.104-24.512 118.72 0.448 137.792 61.44 4.48 14.528 4.608 30.72 4.672 46.208 0.256 216.256 0.192 432.512 0.192 648.704v32.192h101.056v-31.808-406.4c0.128-48.128 18.368-52.672 69.504-23.232 30.592 17.664 62.976 31.808 95.36 45.632 26.56 11.328 36.608 27.392 36.224 56.32-1.536 109.44-0.64 218.88-0.64 328.32v31.36h30.272c8.96 0 16.32 7.36 16.32 16.32v65.088c0 8.96-7.36 16.32-16.32 16.32H80.32A16.192 16.192 0 0 1 64 943.616z m197.248-481.216h200.96a49.152 49.152 0 0 0 49.216-49.024 49.152 49.152 0 0 0-49.216-49.024h-200.96a49.152 49.152 0 0 0-49.152 49.024c0 27.072 22.016 49.024 49.152 49.024z m0.256 250.24h199.872a49.536 49.536 0 0 0 49.6-49.472 49.536 49.536 0 0 0-49.6-49.408H261.504a49.536 49.536 0 0 0-35.072 84.352 49.536 49.536 0 0 0 35.072 14.464z" p-id="4805" fill="#cdcdcd"></path></svg>